<svg width="144" height="128" viewBox="0 0 144 128" fill="none" xmlns="http://www.w3.org/2000/svg">
<mask id="path-1-inside-1" fill="white">
<path fill-rule="evenodd" clip-rule="evenodd" d="M142.988 53.3333C137.676 23.1327 107.69 0 71.4942 0C35.2986 0 5.31268 23.1327 0 53.3333H25.5617V74.6667H0.219704C5.53238 104.867 35.5183 128 71.7139 128C107.909 128 137.895 104.867 143.208 74.6667H118.483V53.3333H142.988Z"/>
</mask>
<path d="M142.988 53.3333V56.3333H146.562L145.943 52.8136L142.988 53.3333ZM0 53.3333L-2.95463 52.8136L-3.5738 56.3333H0V53.3333ZM25.5617 53.3333H28.5617V50.3333H25.5617V53.3333ZM25.5617 74.6667V77.6667H28.5617V74.6667H25.5617ZM0.219704 74.6667V71.6667H-3.3541L-2.73493 75.1864L0.219704 74.6667ZM143.208 74.6667L146.163 75.1864L146.782 71.6667H143.208V74.6667ZM118.483 74.6667H115.483V77.6667H118.483V74.6667ZM118.483 53.3333V50.3333H115.483V53.3333H118.483ZM71.4942 3C106.517 3 135.019 25.3487 140.034 53.8531L145.943 52.8136C140.332 20.9167 108.863 -3 71.4942 -3V3ZM2.95463 53.8531C7.96892 25.3487 36.4718 3 71.4942 3V-3C34.1254 -3 2.65643 20.9167 -2.95463 52.8136L2.95463 53.8531ZM25.5617 50.3333H0V56.3333H25.5617V50.3333ZM28.5617 74.6667V53.3333H22.5617V74.6667H28.5617ZM25.5617 71.6667H0.219704V77.6667H25.5617V71.6667ZM-2.73493 75.1864C2.87613 107.083 34.3451 131 71.7139 131V125C36.6915 125 8.18862 102.651 3.17434 74.1469L-2.73493 75.1864ZM71.7139 131C109.083 131 140.552 107.083 146.163 75.1864L140.253 74.1469C135.239 102.651 106.736 125 71.7139 125V131ZM143.208 71.6667H118.483V77.6667H143.208V71.6667ZM115.483 53.3333V74.6667H121.483V53.3333H115.483ZM142.988 50.3333H118.483V56.3333H142.988V50.3333Z" fill="white" mask="url(#path-1-inside-1)"/>
<path d="M44.2637 68.3457L44.9746 73.2207L46.0156 68.8281L53.3281 43.0312H57.4414L64.5762 68.8281L65.5918 73.2969L66.3789 68.3203L72.1172 43.0312H77.0176L68.0547 80H63.6113L55.9941 53.0605L55.4102 50.2422L54.8262 53.0605L46.9297 80H42.4863L33.5488 43.0312H38.4238L44.2637 68.3457ZM96.0098 65.0449H87.3262V80H82.4258V43.0312H94.6641C98.8281 43.0312 102.027 43.9792 104.262 45.875C106.513 47.7708 107.639 50.5299 107.639 54.1523C107.639 56.4544 107.012 58.4603 105.76 60.1699C104.524 61.8796 102.798 63.1576 100.58 64.0039L109.264 79.6953V80H104.033L96.0098 65.0449ZM87.3262 61.0586H94.8164C97.237 61.0586 99.1582 60.4323 100.58 59.1797C102.019 57.9271 102.738 56.2513 102.738 54.1523C102.738 51.8672 102.053 50.1152 100.682 48.8965C99.3275 47.6777 97.3639 47.0599 94.791 47.043H87.3262V61.0586Z" fill="white"/>
<path d="M44.2637 68.3457L47.2323 67.9128L47.2145 67.7911L47.1869 67.6713L44.2637 68.3457ZM44.9746 73.2207L42.006 73.6536L47.8938 73.9125L44.9746 73.2207ZM46.0156 68.8281L43.1293 68.01L43.1115 68.0728L43.0965 68.1363L46.0156 68.8281ZM53.3281 43.0312V40.0312H51.0603L50.4418 42.2131L53.3281 43.0312ZM57.4414 43.0312L60.3329 42.2315L59.7243 40.0312H57.4414V43.0312ZM64.5762 68.8281L67.5016 68.1633L67.4862 68.0954L67.4676 68.0284L64.5762 68.8281ZM65.5918 73.2969L62.6664 73.9617L68.555 73.7655L65.5918 73.2969ZM66.3789 68.3203L63.4533 67.6565L63.4313 67.7534L63.4157 67.8516L66.3789 68.3203ZM72.1172 43.0312V40.0312H69.7216L69.1916 42.3674L72.1172 43.0312ZM77.0176 43.0312L79.9331 43.7381L80.8318 40.0312H77.0176V43.0312ZM68.0547 80V83H70.4143L70.9702 80.7069L68.0547 80ZM63.6113 80L60.7245 80.8163L61.342 83H63.6113V80ZM55.9941 53.0605L53.0565 53.6692L53.0782 53.7739L53.1073 53.8768L55.9941 53.0605ZM55.4102 50.2422L58.3478 49.6335H52.4726L55.4102 50.2422ZM54.8262 53.0605L57.705 53.9044L57.7392 53.788L57.7638 53.6692L54.8262 53.0605ZM46.9297 80V83H49.1766L49.8086 80.8439L46.9297 80ZM42.4863 80L39.5703 80.705L40.1252 83H42.4863V80ZM33.5488 43.0312V40.0312H29.7371L30.6328 43.7362L33.5488 43.0312ZM38.4238 43.0312L41.3471 42.3569L40.8105 40.0312H38.4238V43.0312ZM41.2951 68.7786L42.006 73.6536L47.9432 72.7878L47.2323 67.9128L41.2951 68.7786ZM47.8938 73.9125L48.9348 69.5199L43.0965 68.1363L42.0555 72.5289L47.8938 73.9125ZM48.9019 69.6463L56.2144 43.8494L50.4418 42.2131L43.1293 68.01L48.9019 69.6463ZM53.3281 46.0312H57.4414V40.0312H53.3281V46.0312ZM54.55 43.831L61.6847 69.6278L67.4676 68.0284L60.3329 42.2315L54.55 43.831ZM61.6508 69.493L62.6664 73.9617L68.5172 72.632L67.5016 68.1633L61.6508 69.493ZM68.555 73.7655L69.3421 68.789L63.4157 67.8516L62.6286 72.8282L68.555 73.7655ZM69.3045 68.9842L75.0428 43.6951L69.1916 42.3674L63.4533 67.6565L69.3045 68.9842ZM72.1172 46.0312H77.0176V40.0312H72.1172V46.0312ZM74.102 42.3244L65.1392 79.2931L70.9702 80.7069L79.9331 43.7381L74.102 42.3244ZM68.0547 77H63.6113V83H68.0547V77ZM66.4981 79.1837L58.881 52.2443L53.1073 53.8768L60.7245 80.8163L66.4981 79.1837ZM58.9317 52.4519L58.3478 49.6335L52.4726 50.8509L53.0565 53.6692L58.9317 52.4519ZM52.4726 49.6335L51.8886 52.4519L57.7638 53.6692L58.3478 50.8509L52.4726 49.6335ZM51.9473 52.2167L44.0508 79.1561L49.8086 80.8439L57.705 53.9044L51.9473 52.2167ZM46.9297 77H42.4863V83H46.9297V77ZM45.4023 79.295L36.4648 42.3263L30.6328 43.7362L39.5703 80.705L45.4023 79.295ZM33.5488 46.0312H38.4238V40.0312H33.5488V46.0312ZM35.5006 43.7056L41.3404 69.0201L47.1869 67.6713L41.3471 42.3569L35.5006 43.7056ZM96.0098 65.0449L98.6533 63.6266L97.8047 62.0449H96.0098V65.0449ZM87.3262 65.0449V62.0449H84.3262V65.0449H87.3262ZM87.3262 80V83H90.3262V80H87.3262ZM82.4258 80H79.4258V83H82.4258V80ZM82.4258 43.0312V40.0312H79.4258V43.0312H82.4258ZM104.262 45.875L102.321 48.1625L102.329 48.1697L104.262 45.875ZM105.76 60.1699L103.34 58.3969L103.334 58.4047L103.328 58.4126L105.76 60.1699ZM100.58 64.0039L99.5103 61.2011L96.2821 62.4332L97.9552 65.4565L100.58 64.0039ZM109.264 79.6953H112.264V78.9206L111.889 78.2427L109.264 79.6953ZM109.264 80V83H112.264V80H109.264ZM104.033 80L101.39 81.4183L102.238 83H104.033V80ZM87.3262 61.0586H84.3262V64.0586H87.3262V61.0586ZM100.58 59.1797L98.6102 56.917L98.6036 56.9228L98.597 56.9286L100.58 59.1797ZM100.682 48.8965L98.6747 51.1264L98.6816 51.1326L98.6885 51.1387L100.682 48.8965ZM94.791 47.043L94.8108 44.043L94.8009 44.043H94.791V47.043ZM87.3262 47.043V44.043H84.3262V47.043H87.3262ZM96.0098 62.0449H87.3262V68.0449H96.0098V62.0449ZM84.3262 65.0449V80H90.3262V65.0449H84.3262ZM87.3262 77H82.4258V83H87.3262V77ZM85.4258 80V43.0312H79.4258V80H85.4258ZM82.4258 46.0312H94.6641V40.0312H82.4258V46.0312ZM94.6641 46.0312C98.4122 46.0312 100.818 46.887 102.321 48.1625L106.203 43.5875C103.237 41.0713 99.244 40.0312 94.6641 40.0312V46.0312ZM102.329 48.1697C103.75 49.366 104.639 51.1918 104.639 54.1523H110.639C110.639 49.8681 109.276 46.1757 106.194 43.5803L102.329 48.1697ZM104.639 54.1523C104.639 55.8748 104.183 57.2465 103.34 58.3969L108.18 61.943C109.842 59.674 110.639 57.034 110.639 54.1523H104.639ZM103.328 58.4126C102.477 59.5908 101.252 60.5362 99.5103 61.2011L101.65 66.8067C104.343 65.7789 106.571 64.1683 108.191 61.9273L103.328 58.4126ZM97.9552 65.4565L106.639 81.1479L111.889 78.2427L103.205 62.5513L97.9552 65.4565ZM106.264 79.6953V80H112.264V79.6953H106.264ZM109.264 77H104.033V83H109.264V77ZM106.677 78.5817L98.6533 63.6266L93.3662 66.4632L101.39 81.4183L106.677 78.5817ZM87.3262 64.0586H94.8164V58.0586H87.3262V64.0586ZM94.8164 64.0586C97.7587 64.0586 100.455 63.288 102.563 61.4308L98.597 56.9286C97.8614 57.5766 96.7153 58.0586 94.8164 58.0586V64.0586ZM102.55 61.4424C104.714 59.5588 105.738 57.0212 105.738 54.1523H99.7383C99.7383 55.4814 99.3243 56.2954 98.6102 56.917L102.55 61.4424ZM105.738 54.1523C105.738 51.2372 104.838 48.5774 102.675 46.6543L98.6885 51.1387C99.2672 51.653 99.7383 52.4972 99.7383 54.1523H105.738ZM102.689 46.6666C100.6 44.7869 97.817 44.0628 94.8108 44.043L94.7713 50.0429C96.9109 50.057 98.0549 50.5685 98.6747 51.1264L102.689 46.6666ZM94.791 44.043H87.3262V50.043H94.791V44.043ZM84.3262 47.043V61.0586H90.3262V47.043H84.3262Z" fill="white"/>
</svg>
